<mxfile host="Electron" agent="Mozilla/5.0 (Windows NT 10.0; Win64; x64) AppleWebKit/537.36 (KHTML, like Gecko) draw.io/27.0.2 Chrome/134.0.6998.205 Electron/35.3.0 Safari/537.36" version="27.0.2">
  <diagram name="Page-1" id="bd83a815-5ea8-2e97-e5ec-87c9f400f2fa">
    <mxGraphModel dx="1426" dy="2088" grid="1" gridSize="10" guides="1" tooltips="1" connect="1" arrows="1" fold="1" page="1" pageScale="1.5" pageWidth="1169" pageHeight="826" background="none" math="0" shadow="0">
      <root>
        <mxCell id="0" style=";html=1;" />
        <mxCell id="1" style=";html=1;" parent="0" />
        <mxCell id="ySgwgoAHBx86ntdqtx_7-1" value="Карта текущего IT-ландшафта" style="shape=table;childLayout=tableLayout;startSize=40;collapsible=0;recursiveResize=0;expand=0;fillColor=#dae8fc;strokeColor=#6c8ebf;" vertex="1" parent="1">
          <mxGeometry x="330" y="-130" width="760" height="920" as="geometry" />
        </mxCell>
        <mxCell id="ySgwgoAHBx86ntdqtx_7-2" value="Управление обслуживанием в сети отделений" style="shape=tableRow;horizontal=0;swimlaneHead=0;swimlaneBody=0;top=0;left=0;strokeColor=#d79b00;bottom=0;right=0;dropTarget=0;fontStyle=0;fillColor=#ffe6cc;points=[[0,0.5],[1,0.5]];portConstraint=eastwest;startSize=100;collapsible=0;recursiveResize=0;expand=0;whiteSpace=wrap;html=1;" vertex="1" parent="ySgwgoAHBx86ntdqtx_7-1">
          <mxGeometry y="40" width="760" height="160" as="geometry" />
        </mxCell>
        <mxCell id="ySgwgoAHBx86ntdqtx_7-3" value="Продажи в сети отделений" style="swimlane;swimlaneHead=0;swimlaneBody=0;fontStyle=0;strokeColor=#82b366;connectable=0;fillColor=#d5e8d4;startSize=60;collapsible=0;recursiveResize=0;expand=0;whiteSpace=wrap;" vertex="1" parent="ySgwgoAHBx86ntdqtx_7-2">
          <mxGeometry x="100" width="110" height="160" as="geometry">
            <mxRectangle width="110" height="160" as="alternateBounds" />
          </mxGeometry>
        </mxCell>
        <mxCell id="ySgwgoAHBx86ntdqtx_7-59" value="АБС" style="rounded=1;whiteSpace=wrap;html=1;arcSize=18;rotation=-90;fillColor=#dae8fc;strokeColor=#6c8ebf;" vertex="1" parent="ySgwgoAHBx86ntdqtx_7-3">
          <mxGeometry x="6.5" y="55.5" width="93" height="104" as="geometry" />
        </mxCell>
        <mxCell id="ySgwgoAHBx86ntdqtx_7-4" value="Продажи через кол-центр" style="swimlane;swimlaneHead=0;swimlaneBody=0;fontStyle=0;strokeColor=#82b366;connectable=0;fillColor=#d5e8d4;startSize=60;collapsible=0;recursiveResize=0;expand=0;whiteSpace=wrap;" vertex="1" parent="ySgwgoAHBx86ntdqtx_7-2">
          <mxGeometry x="210" width="110" height="160" as="geometry">
            <mxRectangle width="110" height="160" as="alternateBounds" />
          </mxGeometry>
        </mxCell>
        <mxCell id="ySgwgoAHBx86ntdqtx_7-5" value="Управление договорами" style="swimlane;swimlaneHead=0;swimlaneBody=0;fontStyle=0;strokeColor=#82b366;connectable=0;fillColor=#d5e8d4;startSize=60;collapsible=0;recursiveResize=0;expand=0;whiteSpace=wrap;" vertex="1" parent="ySgwgoAHBx86ntdqtx_7-2">
          <mxGeometry x="320" width="110" height="160" as="geometry">
            <mxRectangle width="110" height="160" as="alternateBounds" />
          </mxGeometry>
        </mxCell>
        <mxCell id="ySgwgoAHBx86ntdqtx_7-6" value="Обслуживание депозитных процессов" style="swimlane;swimlaneHead=0;swimlaneBody=0;fontStyle=0;strokeColor=#82b366;connectable=0;fillColor=#d5e8d4;startSize=60;collapsible=0;recursiveResize=0;expand=0;whiteSpace=wrap;" vertex="1" parent="ySgwgoAHBx86ntdqtx_7-2">
          <mxGeometry x="430" width="110" height="160" as="geometry">
            <mxRectangle width="110" height="160" as="alternateBounds" />
          </mxGeometry>
        </mxCell>
        <mxCell id="ySgwgoAHBx86ntdqtx_7-7" value="Обслуживание кредитных процессов" style="swimlane;swimlaneHead=0;swimlaneBody=0;fontStyle=0;strokeColor=#82b366;connectable=0;fillColor=#d5e8d4;startSize=60;collapsible=0;recursiveResize=0;expand=0;whiteSpace=wrap;" vertex="1" parent="ySgwgoAHBx86ntdqtx_7-2">
          <mxGeometry x="540" width="110" height="160" as="geometry">
            <mxRectangle width="110" height="160" as="alternateBounds" />
          </mxGeometry>
        </mxCell>
        <mxCell id="ySgwgoAHBx86ntdqtx_7-8" value="Digital оповещения клиентов" style="swimlane;swimlaneHead=0;swimlaneBody=0;fontStyle=0;strokeColor=#82b366;connectable=0;fillColor=#d5e8d4;startSize=60;collapsible=0;recursiveResize=0;expand=0;whiteSpace=wrap;" vertex="1" parent="ySgwgoAHBx86ntdqtx_7-2">
          <mxGeometry x="650" width="110" height="160" as="geometry">
            <mxRectangle width="110" height="160" as="alternateBounds" />
          </mxGeometry>
        </mxCell>
        <mxCell id="ySgwgoAHBx86ntdqtx_7-9" value="Управление IT" style="shape=tableRow;horizontal=0;swimlaneHead=0;swimlaneBody=0;top=0;left=0;strokeColor=#d79b00;bottom=0;right=0;dropTarget=0;fontStyle=0;fillColor=#ffe6cc;points=[[0,0.5],[1,0.5]];portConstraint=eastwest;startSize=100;collapsible=0;recursiveResize=0;expand=0;whiteSpace=wrap;html=1;" vertex="1" parent="ySgwgoAHBx86ntdqtx_7-1">
          <mxGeometry y="200" width="760" height="120" as="geometry" />
        </mxCell>
        <mxCell id="ySgwgoAHBx86ntdqtx_7-10" value="" style="swimlane;swimlaneHead=0;swimlaneBody=0;fontStyle=0;connectable=0;strokeColor=inherit;fillColor=none;startSize=0;collapsible=0;recursiveResize=0;expand=0;" vertex="1" parent="ySgwgoAHBx86ntdqtx_7-9">
          <mxGeometry x="100" width="110" height="120" as="geometry">
            <mxRectangle width="110" height="120" as="alternateBounds" />
          </mxGeometry>
        </mxCell>
        <mxCell id="ySgwgoAHBx86ntdqtx_7-11" value="" style="swimlane;swimlaneHead=0;swimlaneBody=0;fontStyle=0;connectable=0;strokeColor=inherit;fillColor=none;startSize=0;collapsible=0;recursiveResize=0;expand=0;" vertex="1" parent="ySgwgoAHBx86ntdqtx_7-9">
          <mxGeometry x="210" width="110" height="120" as="geometry">
            <mxRectangle width="110" height="120" as="alternateBounds" />
          </mxGeometry>
        </mxCell>
        <mxCell id="ySgwgoAHBx86ntdqtx_7-12" value="" style="swimlane;swimlaneHead=0;swimlaneBody=0;fontStyle=0;connectable=0;strokeColor=inherit;fillColor=none;startSize=0;collapsible=0;recursiveResize=0;expand=0;" vertex="1" parent="ySgwgoAHBx86ntdqtx_7-9">
          <mxGeometry x="320" width="110" height="120" as="geometry">
            <mxRectangle width="110" height="120" as="alternateBounds" />
          </mxGeometry>
        </mxCell>
        <mxCell id="ySgwgoAHBx86ntdqtx_7-13" value="" style="swimlane;swimlaneHead=0;swimlaneBody=0;fontStyle=0;connectable=0;strokeColor=inherit;fillColor=none;startSize=0;collapsible=0;recursiveResize=0;expand=0;" vertex="1" parent="ySgwgoAHBx86ntdqtx_7-9">
          <mxGeometry x="430" width="110" height="120" as="geometry">
            <mxRectangle width="110" height="120" as="alternateBounds" />
          </mxGeometry>
        </mxCell>
        <mxCell id="ySgwgoAHBx86ntdqtx_7-14" value="" style="swimlane;swimlaneHead=0;swimlaneBody=0;fontStyle=0;connectable=0;strokeColor=inherit;fillColor=none;startSize=0;collapsible=0;recursiveResize=0;expand=0;" vertex="1" parent="ySgwgoAHBx86ntdqtx_7-9">
          <mxGeometry x="540" width="110" height="120" as="geometry">
            <mxRectangle width="110" height="120" as="alternateBounds" />
          </mxGeometry>
        </mxCell>
        <mxCell id="ySgwgoAHBx86ntdqtx_7-15" value="" style="swimlane;swimlaneHead=0;swimlaneBody=0;fontStyle=0;connectable=0;strokeColor=inherit;fillColor=none;startSize=0;collapsible=0;recursiveResize=0;expand=0;" vertex="1" parent="ySgwgoAHBx86ntdqtx_7-9">
          <mxGeometry x="650" width="110" height="120" as="geometry">
            <mxRectangle width="110" height="120" as="alternateBounds" />
          </mxGeometry>
        </mxCell>
        <mxCell id="ySgwgoAHBx86ntdqtx_7-16" value="Управление обслуживанием депозитных продуктов" style="shape=tableRow;horizontal=0;swimlaneHead=0;swimlaneBody=0;top=0;left=0;strokeColor=#d79b00;bottom=0;right=0;dropTarget=0;fontStyle=0;fillColor=#ffe6cc;points=[[0,0.5],[1,0.5]];portConstraint=eastwest;startSize=100;collapsible=0;recursiveResize=0;expand=0;whiteSpace=wrap;html=1;" vertex="1" parent="ySgwgoAHBx86ntdqtx_7-1">
          <mxGeometry y="320" width="760" height="120" as="geometry" />
        </mxCell>
        <mxCell id="ySgwgoAHBx86ntdqtx_7-17" value="" style="swimlane;swimlaneHead=0;swimlaneBody=0;fontStyle=0;connectable=0;strokeColor=inherit;fillColor=none;startSize=0;collapsible=0;recursiveResize=0;expand=0;" vertex="1" parent="ySgwgoAHBx86ntdqtx_7-16">
          <mxGeometry x="100" width="110" height="120" as="geometry">
            <mxRectangle width="110" height="120" as="alternateBounds" />
          </mxGeometry>
        </mxCell>
        <mxCell id="ySgwgoAHBx86ntdqtx_7-18" value="" style="swimlane;swimlaneHead=0;swimlaneBody=0;fontStyle=0;connectable=0;strokeColor=inherit;fillColor=none;startSize=0;collapsible=0;recursiveResize=0;expand=0;" vertex="1" parent="ySgwgoAHBx86ntdqtx_7-16">
          <mxGeometry x="210" width="110" height="120" as="geometry">
            <mxRectangle width="110" height="120" as="alternateBounds" />
          </mxGeometry>
        </mxCell>
        <mxCell id="ySgwgoAHBx86ntdqtx_7-19" value="" style="swimlane;swimlaneHead=0;swimlaneBody=0;fontStyle=0;connectable=0;strokeColor=inherit;fillColor=none;startSize=0;collapsible=0;recursiveResize=0;expand=0;" vertex="1" parent="ySgwgoAHBx86ntdqtx_7-16">
          <mxGeometry x="320" width="110" height="120" as="geometry">
            <mxRectangle width="110" height="120" as="alternateBounds" />
          </mxGeometry>
        </mxCell>
        <mxCell id="ySgwgoAHBx86ntdqtx_7-20" value="" style="swimlane;swimlaneHead=0;swimlaneBody=0;fontStyle=0;connectable=0;strokeColor=inherit;fillColor=none;startSize=0;collapsible=0;recursiveResize=0;expand=0;" vertex="1" parent="ySgwgoAHBx86ntdqtx_7-16">
          <mxGeometry x="430" width="110" height="120" as="geometry">
            <mxRectangle width="110" height="120" as="alternateBounds" />
          </mxGeometry>
        </mxCell>
        <mxCell id="ySgwgoAHBx86ntdqtx_7-53" value="АБС" style="rounded=1;whiteSpace=wrap;html=1;fillColor=#dae8fc;strokeColor=#6c8ebf;" vertex="1" parent="ySgwgoAHBx86ntdqtx_7-20">
          <mxGeometry x="-330" y="-120" width="550" height="360" as="geometry" />
        </mxCell>
        <mxCell id="ySgwgoAHBx86ntdqtx_7-57" value="Интернет-банк" style="rounded=1;whiteSpace=wrap;html=1;arcSize=18;rotation=-90;fillColor=#e1d5e7;strokeColor=#9673a6;" vertex="1" parent="ySgwgoAHBx86ntdqtx_7-20">
          <mxGeometry x="-94.25" y="-23.75" width="240" height="49.5" as="geometry" />
        </mxCell>
        <mxCell id="ySgwgoAHBx86ntdqtx_7-58" value="Сайт" style="rounded=1;whiteSpace=wrap;html=1;arcSize=18;rotation=-90;fillColor=#e1d5e7;strokeColor=#9673a6;" vertex="1" parent="ySgwgoAHBx86ntdqtx_7-20">
          <mxGeometry x="-40.75" y="-28.75" width="240" height="59.5" as="geometry" />
        </mxCell>
        <mxCell id="ySgwgoAHBx86ntdqtx_7-21" value="" style="swimlane;swimlaneHead=0;swimlaneBody=0;fontStyle=0;connectable=0;strokeColor=inherit;fillColor=none;startSize=0;collapsible=0;recursiveResize=0;expand=0;" vertex="1" parent="ySgwgoAHBx86ntdqtx_7-16">
          <mxGeometry x="540" width="110" height="120" as="geometry">
            <mxRectangle width="110" height="120" as="alternateBounds" />
          </mxGeometry>
        </mxCell>
        <mxCell id="ySgwgoAHBx86ntdqtx_7-22" value="" style="swimlane;swimlaneHead=0;swimlaneBody=0;fontStyle=0;connectable=0;strokeColor=inherit;fillColor=none;startSize=0;collapsible=0;recursiveResize=0;expand=0;" vertex="1" parent="ySgwgoAHBx86ntdqtx_7-16">
          <mxGeometry x="650" width="110" height="120" as="geometry">
            <mxRectangle width="110" height="120" as="alternateBounds" />
          </mxGeometry>
        </mxCell>
        <mxCell id="ySgwgoAHBx86ntdqtx_7-60" value="СМС-шлюз телеком-оператора" style="rounded=1;whiteSpace=wrap;html=1;arcSize=18;rotation=-90;fillColor=#e1d5e7;strokeColor=#9673a6;" vertex="1" parent="ySgwgoAHBx86ntdqtx_7-22">
          <mxGeometry x="-30" y="-88.75" width="120" height="59.5" as="geometry" />
        </mxCell>
        <mxCell id="ySgwgoAHBx86ntdqtx_7-23" value="Управление обслуживанием кредитных продуктов" style="shape=tableRow;horizontal=0;swimlaneHead=0;swimlaneBody=0;top=0;left=0;strokeColor=#d79b00;bottom=0;right=0;dropTarget=0;fontStyle=0;fillColor=#ffe6cc;points=[[0,0.5],[1,0.5]];portConstraint=eastwest;startSize=100;collapsible=0;recursiveResize=0;expand=0;whiteSpace=wrap;html=1;" vertex="1" parent="ySgwgoAHBx86ntdqtx_7-1">
          <mxGeometry y="440" width="760" height="120" as="geometry" />
        </mxCell>
        <mxCell id="ySgwgoAHBx86ntdqtx_7-24" value="" style="swimlane;swimlaneHead=0;swimlaneBody=0;fontStyle=0;connectable=0;strokeColor=inherit;fillColor=none;startSize=0;collapsible=0;recursiveResize=0;expand=0;" vertex="1" parent="ySgwgoAHBx86ntdqtx_7-23">
          <mxGeometry x="100" width="110" height="120" as="geometry">
            <mxRectangle width="110" height="120" as="alternateBounds" />
          </mxGeometry>
        </mxCell>
        <mxCell id="ySgwgoAHBx86ntdqtx_7-25" value="" style="swimlane;swimlaneHead=0;swimlaneBody=0;fontStyle=0;connectable=0;strokeColor=inherit;fillColor=none;startSize=0;collapsible=0;recursiveResize=0;expand=0;" vertex="1" parent="ySgwgoAHBx86ntdqtx_7-23">
          <mxGeometry x="210" width="110" height="120" as="geometry">
            <mxRectangle width="110" height="120" as="alternateBounds" />
          </mxGeometry>
        </mxCell>
        <mxCell id="ySgwgoAHBx86ntdqtx_7-26" value="" style="swimlane;swimlaneHead=0;swimlaneBody=0;fontStyle=0;connectable=0;strokeColor=inherit;fillColor=none;startSize=0;collapsible=0;recursiveResize=0;expand=0;" vertex="1" parent="ySgwgoAHBx86ntdqtx_7-23">
          <mxGeometry x="320" width="110" height="120" as="geometry">
            <mxRectangle width="110" height="120" as="alternateBounds" />
          </mxGeometry>
        </mxCell>
        <mxCell id="ySgwgoAHBx86ntdqtx_7-27" value="" style="swimlane;swimlaneHead=0;swimlaneBody=0;fontStyle=0;connectable=0;strokeColor=inherit;fillColor=none;startSize=0;collapsible=0;recursiveResize=0;expand=0;" vertex="1" parent="ySgwgoAHBx86ntdqtx_7-23">
          <mxGeometry x="430" width="110" height="120" as="geometry">
            <mxRectangle width="110" height="120" as="alternateBounds" />
          </mxGeometry>
        </mxCell>
        <mxCell id="ySgwgoAHBx86ntdqtx_7-28" value="" style="swimlane;swimlaneHead=0;swimlaneBody=0;fontStyle=0;connectable=0;strokeColor=inherit;fillColor=none;startSize=0;collapsible=0;recursiveResize=0;expand=0;" vertex="1" parent="ySgwgoAHBx86ntdqtx_7-23">
          <mxGeometry x="540" width="110" height="120" as="geometry">
            <mxRectangle width="110" height="120" as="alternateBounds" />
          </mxGeometry>
        </mxCell>
        <mxCell id="ySgwgoAHBx86ntdqtx_7-29" value="" style="swimlane;swimlaneHead=0;swimlaneBody=0;fontStyle=0;connectable=0;strokeColor=inherit;fillColor=none;startSize=0;collapsible=0;recursiveResize=0;expand=0;" vertex="1" parent="ySgwgoAHBx86ntdqtx_7-23">
          <mxGeometry x="650" width="110" height="120" as="geometry">
            <mxRectangle width="110" height="120" as="alternateBounds" />
          </mxGeometry>
        </mxCell>
        <mxCell id="ySgwgoAHBx86ntdqtx_7-30" value="Кол-центр банка «Стандарт»" style="shape=tableRow;horizontal=0;swimlaneHead=0;swimlaneBody=0;top=0;left=0;strokeColor=#d79b00;bottom=0;right=0;dropTarget=0;fontStyle=0;fillColor=#ffe6cc;points=[[0,0.5],[1,0.5]];portConstraint=eastwest;startSize=100;collapsible=0;recursiveResize=0;expand=0;whiteSpace=wrap;html=1;" vertex="1" parent="ySgwgoAHBx86ntdqtx_7-1">
          <mxGeometry y="560" width="760" height="120" as="geometry" />
        </mxCell>
        <mxCell id="ySgwgoAHBx86ntdqtx_7-31" value="" style="swimlane;swimlaneHead=0;swimlaneBody=0;fontStyle=0;connectable=0;strokeColor=inherit;fillColor=none;startSize=0;collapsible=0;recursiveResize=0;expand=0;" vertex="1" parent="ySgwgoAHBx86ntdqtx_7-30">
          <mxGeometry x="100" width="110" height="120" as="geometry">
            <mxRectangle width="110" height="120" as="alternateBounds" />
          </mxGeometry>
        </mxCell>
        <mxCell id="ySgwgoAHBx86ntdqtx_7-32" value="" style="swimlane;swimlaneHead=0;swimlaneBody=0;fontStyle=0;connectable=0;strokeColor=inherit;fillColor=none;startSize=0;collapsible=0;recursiveResize=0;expand=0;" vertex="1" parent="ySgwgoAHBx86ntdqtx_7-30">
          <mxGeometry x="210" width="110" height="120" as="geometry">
            <mxRectangle width="110" height="120" as="alternateBounds" />
          </mxGeometry>
        </mxCell>
        <mxCell id="ySgwgoAHBx86ntdqtx_7-54" value="Система кол-центра" style="rounded=1;whiteSpace=wrap;html=1;arcSize=18;rotation=-90;fillColor=#fff2cc;strokeColor=#d6b656;" vertex="1" parent="ySgwgoAHBx86ntdqtx_7-32">
          <mxGeometry x="-16.25" y="16.25" width="115" height="82.5" as="geometry" />
        </mxCell>
        <mxCell id="ySgwgoAHBx86ntdqtx_7-33" value="" style="swimlane;swimlaneHead=0;swimlaneBody=0;fontStyle=0;connectable=0;strokeColor=inherit;fillColor=none;startSize=0;collapsible=0;recursiveResize=0;expand=0;" vertex="1" parent="ySgwgoAHBx86ntdqtx_7-30">
          <mxGeometry x="320" width="110" height="120" as="geometry">
            <mxRectangle width="110" height="120" as="alternateBounds" />
          </mxGeometry>
        </mxCell>
        <mxCell id="ySgwgoAHBx86ntdqtx_7-34" value="" style="swimlane;swimlaneHead=0;swimlaneBody=0;fontStyle=0;connectable=0;strokeColor=inherit;fillColor=none;startSize=0;collapsible=0;recursiveResize=0;expand=0;" vertex="1" parent="ySgwgoAHBx86ntdqtx_7-30">
          <mxGeometry x="430" width="110" height="120" as="geometry">
            <mxRectangle width="110" height="120" as="alternateBounds" />
          </mxGeometry>
        </mxCell>
        <mxCell id="ySgwgoAHBx86ntdqtx_7-35" value="" style="swimlane;swimlaneHead=0;swimlaneBody=0;fontStyle=0;connectable=0;strokeColor=inherit;fillColor=none;startSize=0;collapsible=0;recursiveResize=0;expand=0;" vertex="1" parent="ySgwgoAHBx86ntdqtx_7-30">
          <mxGeometry x="540" width="110" height="120" as="geometry">
            <mxRectangle width="110" height="120" as="alternateBounds" />
          </mxGeometry>
        </mxCell>
        <mxCell id="ySgwgoAHBx86ntdqtx_7-36" value="" style="swimlane;swimlaneHead=0;swimlaneBody=0;fontStyle=0;connectable=0;strokeColor=inherit;fillColor=none;startSize=0;collapsible=0;recursiveResize=0;expand=0;" vertex="1" parent="ySgwgoAHBx86ntdqtx_7-30">
          <mxGeometry x="650" width="110" height="120" as="geometry">
            <mxRectangle width="110" height="120" as="alternateBounds" />
          </mxGeometry>
        </mxCell>
        <mxCell id="ySgwgoAHBx86ntdqtx_7-37" value="Партнёрский кол-центр" style="shape=tableRow;horizontal=0;swimlaneHead=0;swimlaneBody=0;top=0;left=0;strokeColor=#d79b00;bottom=0;right=0;dropTarget=0;fontStyle=0;fillColor=#ffe6cc;points=[[0,0.5],[1,0.5]];portConstraint=eastwest;startSize=100;collapsible=0;recursiveResize=0;expand=0;whiteSpace=wrap;html=1;" vertex="1" parent="ySgwgoAHBx86ntdqtx_7-1">
          <mxGeometry y="680" width="760" height="120" as="geometry" />
        </mxCell>
        <mxCell id="ySgwgoAHBx86ntdqtx_7-38" value="" style="swimlane;swimlaneHead=0;swimlaneBody=0;fontStyle=0;connectable=0;strokeColor=inherit;fillColor=none;startSize=0;collapsible=0;recursiveResize=0;expand=0;" vertex="1" parent="ySgwgoAHBx86ntdqtx_7-37">
          <mxGeometry x="100" width="110" height="120" as="geometry">
            <mxRectangle width="110" height="120" as="alternateBounds" />
          </mxGeometry>
        </mxCell>
        <mxCell id="ySgwgoAHBx86ntdqtx_7-39" value="" style="swimlane;swimlaneHead=0;swimlaneBody=0;fontStyle=0;connectable=0;strokeColor=inherit;fillColor=none;startSize=0;collapsible=0;recursiveResize=0;expand=0;" vertex="1" parent="ySgwgoAHBx86ntdqtx_7-37">
          <mxGeometry x="210" width="110" height="120" as="geometry">
            <mxRectangle width="110" height="120" as="alternateBounds" />
          </mxGeometry>
        </mxCell>
        <mxCell id="ySgwgoAHBx86ntdqtx_7-55" value="Система партнёрского кол-центра" style="rounded=1;whiteSpace=wrap;html=1;arcSize=18;rotation=-90;fillColor=#fff2cc;strokeColor=#d6b656;" vertex="1" parent="ySgwgoAHBx86ntdqtx_7-39">
          <mxGeometry x="-20" y="20" width="120" height="80" as="geometry" />
        </mxCell>
        <mxCell id="ySgwgoAHBx86ntdqtx_7-56" value="АБС" style="rounded=1;whiteSpace=wrap;html=1;arcSize=18;rotation=-90;fillColor=#dae8fc;strokeColor=#6c8ebf;" vertex="1" parent="ySgwgoAHBx86ntdqtx_7-39">
          <mxGeometry x="-25" y="-15" width="240" height="30" as="geometry" />
        </mxCell>
        <mxCell id="ySgwgoAHBx86ntdqtx_7-40" value="" style="swimlane;swimlaneHead=0;swimlaneBody=0;fontStyle=0;connectable=0;strokeColor=inherit;fillColor=none;startSize=0;collapsible=0;recursiveResize=0;expand=0;" vertex="1" parent="ySgwgoAHBx86ntdqtx_7-37">
          <mxGeometry x="320" width="110" height="120" as="geometry">
            <mxRectangle width="110" height="120" as="alternateBounds" />
          </mxGeometry>
        </mxCell>
        <mxCell id="ySgwgoAHBx86ntdqtx_7-41" value="" style="swimlane;swimlaneHead=0;swimlaneBody=0;fontStyle=0;connectable=0;strokeColor=inherit;fillColor=none;startSize=0;collapsible=0;recursiveResize=0;expand=0;" vertex="1" parent="ySgwgoAHBx86ntdqtx_7-37">
          <mxGeometry x="430" width="110" height="120" as="geometry">
            <mxRectangle width="110" height="120" as="alternateBounds" />
          </mxGeometry>
        </mxCell>
        <mxCell id="ySgwgoAHBx86ntdqtx_7-42" value="" style="swimlane;swimlaneHead=0;swimlaneBody=0;fontStyle=0;connectable=0;strokeColor=inherit;fillColor=none;startSize=0;collapsible=0;recursiveResize=0;expand=0;" vertex="1" parent="ySgwgoAHBx86ntdqtx_7-37">
          <mxGeometry x="540" width="110" height="120" as="geometry">
            <mxRectangle width="110" height="120" as="alternateBounds" />
          </mxGeometry>
        </mxCell>
        <mxCell id="ySgwgoAHBx86ntdqtx_7-43" value="" style="swimlane;swimlaneHead=0;swimlaneBody=0;fontStyle=0;connectable=0;strokeColor=inherit;fillColor=none;startSize=0;collapsible=0;recursiveResize=0;expand=0;" vertex="1" parent="ySgwgoAHBx86ntdqtx_7-37">
          <mxGeometry x="650" width="110" height="120" as="geometry">
            <mxRectangle width="110" height="120" as="alternateBounds" />
          </mxGeometry>
        </mxCell>
        <mxCell id="ySgwgoAHBx86ntdqtx_7-44" value="Команда цифровой трансформации розничного бизнеса" style="shape=tableRow;horizontal=0;swimlaneHead=0;swimlaneBody=0;top=0;left=0;strokeColor=#d79b00;bottom=0;right=0;dropTarget=0;fontStyle=0;fillColor=#ffe6cc;points=[[0,0.5],[1,0.5]];portConstraint=eastwest;startSize=100;collapsible=0;recursiveResize=0;expand=0;whiteSpace=wrap;html=1;" vertex="1" parent="ySgwgoAHBx86ntdqtx_7-1">
          <mxGeometry y="800" width="760" height="120" as="geometry" />
        </mxCell>
        <mxCell id="ySgwgoAHBx86ntdqtx_7-45" value="" style="swimlane;swimlaneHead=0;swimlaneBody=0;fontStyle=0;connectable=0;strokeColor=inherit;fillColor=none;startSize=0;collapsible=0;recursiveResize=0;expand=0;" vertex="1" parent="ySgwgoAHBx86ntdqtx_7-44">
          <mxGeometry x="100" width="110" height="120" as="geometry">
            <mxRectangle width="110" height="120" as="alternateBounds" />
          </mxGeometry>
        </mxCell>
        <mxCell id="ySgwgoAHBx86ntdqtx_7-46" value="" style="swimlane;swimlaneHead=0;swimlaneBody=0;fontStyle=0;connectable=0;strokeColor=inherit;fillColor=none;startSize=0;collapsible=0;recursiveResize=0;expand=0;" vertex="1" parent="ySgwgoAHBx86ntdqtx_7-44">
          <mxGeometry x="210" width="110" height="120" as="geometry">
            <mxRectangle width="110" height="120" as="alternateBounds" />
          </mxGeometry>
        </mxCell>
        <mxCell id="ySgwgoAHBx86ntdqtx_7-47" value="" style="swimlane;swimlaneHead=0;swimlaneBody=0;fontStyle=0;connectable=0;strokeColor=inherit;fillColor=none;startSize=0;collapsible=0;recursiveResize=0;expand=0;" vertex="1" parent="ySgwgoAHBx86ntdqtx_7-44">
          <mxGeometry x="320" width="110" height="120" as="geometry">
            <mxRectangle width="110" height="120" as="alternateBounds" />
          </mxGeometry>
        </mxCell>
        <mxCell id="ySgwgoAHBx86ntdqtx_7-48" value="" style="swimlane;swimlaneHead=0;swimlaneBody=0;fontStyle=0;connectable=0;strokeColor=inherit;fillColor=none;startSize=0;collapsible=0;recursiveResize=0;expand=0;" vertex="1" parent="ySgwgoAHBx86ntdqtx_7-44">
          <mxGeometry x="430" width="110" height="120" as="geometry">
            <mxRectangle width="110" height="120" as="alternateBounds" />
          </mxGeometry>
        </mxCell>
        <mxCell id="ySgwgoAHBx86ntdqtx_7-49" value="" style="swimlane;swimlaneHead=0;swimlaneBody=0;fontStyle=0;connectable=0;strokeColor=inherit;fillColor=none;startSize=0;collapsible=0;recursiveResize=0;expand=0;" vertex="1" parent="ySgwgoAHBx86ntdqtx_7-44">
          <mxGeometry x="540" width="110" height="120" as="geometry">
            <mxRectangle width="110" height="120" as="alternateBounds" />
          </mxGeometry>
        </mxCell>
        <mxCell id="ySgwgoAHBx86ntdqtx_7-50" value="" style="swimlane;swimlaneHead=0;swimlaneBody=0;fontStyle=0;connectable=0;strokeColor=inherit;fillColor=none;startSize=0;collapsible=0;recursiveResize=0;expand=0;" vertex="1" parent="ySgwgoAHBx86ntdqtx_7-44">
          <mxGeometry x="650" width="110" height="120" as="geometry">
            <mxRectangle width="110" height="120" as="alternateBounds" />
          </mxGeometry>
        </mxCell>
      </root>
    </mxGraphModel>
  </diagram>
</mxfile>
